<?xml version="1.0" standalone="no"?>
<!DOCTYPE svg PUBLIC "-//W3C//DTD SVG 20010904//EN"
 "http://www.w3.org/TR/2001/REC-SVG-20010904/DTD/svg10.dtd">
<svg version="1.0" xmlns="http://www.w3.org/2000/svg"
 width="640.000000pt" height="640.000000pt" viewBox="0 0 640.000000 640.000000"
 preserveAspectRatio="xMidYMid meet">
<metadata>
Created by potrace 1.14, written by Peter Selinger 2001-2017
</metadata>
<g transform="translate(0.000000,640.000000) scale(0.100000,-0.100000)"
fill="#000000" stroke="none">
<path d="M1680 5105 c-118 -18 -136 -21 -212 -39 -256 -60 -562 -213 -767
-384 -88 -73 -214 -201 -283 -287 -62 -78 -168 -237 -168 -253 0 -6 -3 -12 -8
-14 -26 -11 -172 -378 -185 -465 -3 -17 -7 -36 -10 -40 -3 -5 -8 -27 -11 -49
-4 -22 -9 -51 -11 -64 -26 -131 -26 -546 0 -622 2 -7 6 -26 8 -43 31 -204 156
-508 295 -716 69 -102 211 -269 290 -340 197 -178 444 -326 672 -402 146 -49
193 -60 360 -87 108 -17 210 -18 1580 -16 806 1 1474 4 1485 8 19 5 48 10 140
24 22 3 44 8 48 11 5 3 23 7 40 10 47 7 199 59 297 100 270 116 525 307 722
543 192 232 358 585 404 860 2 14 6 35 9 46 19 86 27 445 12 544 -18 119 -27
163 -52 260 -148 585 -595 1082 -1171 1304 -89 34 -285 88 -372 101 -23 4 -54
9 -70 13 -15 3 -686 6 -1492 7 -1131 2 -1484 0 -1550 -10z m3435 -1057 c80
-32 165 -115 206 -203 25 -53 32 -82 35 -144 7 -171 -78 -311 -233 -384 -62
-28 -77 -32 -163 -32 -85 0 -102 4 -160 31 -94 45 -153 101 -196 190 -33 66
-37 83 -38 156 -1 46 2 97 5 113 27 127 173 273 292 292 18 3 34 7 37 10 12
12 161 -8 215 -29z m-3119 -63 c67 -20 129 -82 149 -148 11 -36 15 -100 15
-224 l0 -173 173 0 c205 0 254 -11 311 -67 53 -54 71 -97 71 -173 0 -73 -18
-119 -66 -168 -59 -61 -85 -67 -296 -70 l-193 -3 0 -172 c0 -189 -8 -232 -52
-293 -42 -58 -106 -89 -188 -89 -76 1 -123 20 -175 73 -56 58 -65 101 -65 303
l0 177 -192 4 c-213 3 -240 10 -299 73 -42 44 -60 82 -66 141 -10 91 38 184
119 233 42 25 49 26 241 29 l197 4 0 177 c0 206 9 246 72 309 66 67 147 86
244 57z m2490 -904 c285 -133 314 -520 51 -694 -253 -168 -600 9 -613 312 -6
152 54 271 179 354 74 50 136 66 234 62 67 -2 95 -9 149 -34z"/>
</g>
</svg>
